<svg id="visual" viewBox="0 0 1080 600" width="1080" height="600" xmlns="http://www.w3.org/2000/svg" xmlns:xlink="http://www.w3.org/1999/xlink" version="1.1"><rect x="0" y="0" width="1080" height="600" fill="#ffffff"></rect><path d="M0 433L25.7 438.7C51.3 444.3 102.7 455.7 154.2 471C205.7 486.3 257.3 505.7 308.8 509.3C360.3 513 411.7 501 463 485.7C514.3 470.3 565.7 451.7 617 452.2C668.3 452.7 719.7 472.3 771.2 482.3C822.7 492.3 874.3 492.7 925.8 487.8C977.3 483 1028.7 473 1054.3 468L1080 463L1080 601L1054.3 601C1028.7 601 977.3 601 925.8 601C874.3 601 822.7 601 771.2 601C719.7 601 668.3 601 617 601C565.7 601 514.3 601 463 601C411.7 601 360.3 601 308.8 601C257.3 601 205.7 601 154.2 601C102.7 601 51.3 601 25.7 601L0 601Z" fill="#7f5af0" stroke-linecap="round" stroke-linejoin="miter"></path></svg>